<?xml version="1.0" encoding="UTF-8"?>
<svg version="1.1" xmlns="http://www.w3.org/2000/svg" width="400" height="400">
<path d="M0 0 C132 0 264 0 400 0 C400 132 400 264 400 400 C268 400 136 400 0 400 C0 268 0 136 0 0 Z " fill="#333233" transform="translate(0,0)"/>
<path d="M0 0 C11.22 0 22.44 0 34 0 C33.09478186 4.52609069 32.03606667 6.63758385 29.58984375 10.3671875 C27.52011047 13.79470649 25.76704692 17.34676474 24 20.9375 C21.14639421 26.71904478 18.20243085 32.40239926 15 38 C6.72398074 52.36258314 6.72398074 52.36258314 -0.40234375 67.3125 C-2.01284605 71.10003085 -3.82727059 74.76752758 -5.6875 78.4375 C-6.00783203 79.07365234 -6.32816406 79.70980469 -6.65820312 80.36523438 C-7.43694422 81.91109357 -8.21820334 83.45568387 -9 85 C-9.66 85 -10.32 85 -11 85 C-11.268125 85.886875 -11.53625 86.77375 -11.8125 87.6875 C-12.92474365 90.79007439 -14.2815423 93.20750624 -16 96 C-16.28617187 96.74507813 -16.57234375 97.49015625 -16.8671875 98.2578125 C-18.19257023 101.46615276 -19.86116804 104.32241834 -21.625 107.3125 C-26.66633775 115.97602905 -31.05252626 124.94486372 -35.4375 133.953125 C-35.85 134.79359375 -36.2625 135.6340625 -36.6875 136.5 C-37.02136719 137.1909375 -37.35523438 137.881875 -37.69921875 138.59375 C-38.82588911 140.677921 -40.02782632 142.64091624 -41.30078125 144.63671875 C-44.30158121 149.39172182 -46.90909991 154.32520912 -49.5 159.3125 C-49.98122314 160.23442139 -50.46244629 161.15634277 -50.95825195 162.10620117 C-54.18057617 168.31806229 -57.26781717 174.55446371 -60 181 C-60.66 181 -61.32 181 -62 181 C-62.33064453 182.15242188 -62.33064453 182.15242188 -62.66796875 183.328125 C-64.48777179 188.34459087 -66.8949734 192.9984205 -69.3125 197.75 C-69.78623047 198.6884375 -70.25996094 199.626875 -70.74804688 200.59375 C-71.64825786 202.37693126 -72.55012894 204.15927633 -73.4543457 205.94042969 C-75.6500153 210.28668327 -77.82234598 214.64469195 -80 219 C-91.22 219 -102.44 219 -114 219 C-113.10181701 214.50908506 -112.349526 212.68254443 -110 209 C-109.15219259 207.35963036 -108.32314131 205.70945042 -107.51171875 204.05078125 C-107.05216797 203.11943359 -106.59261719 202.18808594 -106.11914062 201.22851562 C-105.17471583 199.30487822 -104.23196998 197.38041549 -103.29101562 195.45507812 C-100.55634228 189.92107295 -97.62128983 184.61050153 -94.39916992 179.34643555 C-92.34675144 175.90448928 -90.56662051 172.35075042 -88.8125 168.75 C-88.48314453 168.08226562 -88.15378906 167.41453125 -87.81445312 166.7265625 C-87.1749855 165.42982895 -86.53704651 164.13234008 -85.90087891 162.83398438 C-84.61468722 160.2155909 -83.30785989 157.60762158 -82 155 C-81.34 155 -80.68 155 -80 155 C-79.83709473 154.45472656 -79.67418945 153.90945312 -79.50634766 153.34765625 C-77.68183547 147.53505107 -75.28607195 142.34034235 -72.375 137 C-71.48176764 135.33333505 -70.58853854 133.66666834 -69.6953125 132 C-69.24575195 131.16726562 -68.79619141 130.33453125 -68.33300781 129.4765625 C-66.66693038 126.38119812 -65.0273046 123.27231911 -63.38916016 120.16210938 C-60.1778436 114.06707736 -56.92200987 107.99945774 -53.60546875 101.9609375 C-51.08064297 97.30444615 -48.61818372 92.61485711 -46.15820312 87.92382812 C-44.20472036 84.21324446 -42.18485384 80.58123426 -40 77 C-35.80513601 69.84217082 -35.80513601 69.84217082 -32.6875 62.1875 C-31.28774664 58.08942691 -28.93582559 54.6492481 -26.5625 51.0625 C-23.64411462 46.64985494 -21.03262599 42.35078924 -19.0390625 37.44140625 C-17.58833685 34.03274635 -15.91750008 30.74439158 -14.25 27.4375 C-13.93144043 26.80457031 -13.61288086 26.17164062 -13.28466797 25.51953125 C-12.52476919 24.01218424 -11.76262475 22.50596967 -11 21 C-10.34 21 -9.68 21 -9 21 C-8.70996094 19.95199219 -8.70996094 19.95199219 -8.4140625 18.8828125 C-8.02347656 17.51769531 -8.02347656 17.51769531 -7.625 16.125 C-7.36976563 15.22007813 -7.11453125 14.31515625 -6.8515625 13.3828125 C-6 11 -6 11 -4 9 C-2.96514123 6.68191636 -1.9644586 4.34824702 -1 2 C-0.67 1.34 -0.34 0.68 0 0 Z " fill="#8950F9" transform="translate(190,91)"/>
<path d="M0 0 C1.02671562 0.03096771 1.02671562 0.03096771 2.07417297 0.06256104 C3.13321587 0.07105072 3.13321587 0.07105072 4.21365356 0.07971191 C6.46603048 0.10208193 8.71680926 0.15227404 10.96870422 0.20318604 C12.49667602 0.22325047 14.02467278 0.24150135 15.5526886 0.25787354 C19.29614178 0.30194802 23.03840218 0.37097529 26.78120422 0.45318604 C25.89943518 4.41284835 24.16593945 7.67511354 22.21870422 11.20318604 C19.1677022 16.82525718 16.20598014 22.48257221 13.34370422 28.20318604 C12.83118103 29.22170654 12.83118103 29.22170654 12.30830383 30.26080322 C10.95863189 32.96769293 9.73914669 35.57935864 8.78120422 38.45318604 C8.12120422 38.45318604 7.46120422 38.45318604 6.78120422 38.45318604 C6.46602844 39.59207275 6.46602844 39.59207275 6.14448547 40.75396729 C4.22202245 45.97050736 1.58657685 50.74364982 -1.03129578 55.64068604 C-4.65257802 62.43114978 -8.11486095 69.23429041 -11.24491882 76.26690674 C-11.87267769 77.67617739 -12.52885013 79.07329475 -13.21879578 80.45318604 C-13.87879578 80.45318604 -14.53879578 80.45318604 -15.21879578 80.45318604 C-15.58617859 81.69455322 -15.58617859 81.69455322 -15.96098328 82.96099854 C-17.41158912 86.988457 -19.29664712 90.57932618 -21.34379578 94.32818604 C-24.28125537 99.78992409 -27.16123956 105.26723344 -29.90629578 110.82818604 C-33.34416403 117.76133996 -36.86411342 124.65172182 -40.41474915 131.52770996 C-41.31870088 133.27955257 -42.21935748 135.03309423 -43.11991882 136.78668213 C-46.20691572 142.75177159 -49.40326838 148.59379319 -52.92826843 154.31207275 C-56.03684246 159.4695064 -58.48539133 164.6751712 -60.21879578 170.45318604 C-60.87879578 170.45318604 -61.53879578 170.45318604 -62.21879578 170.45318604 C-62.45598328 171.26400635 -62.69317078 172.07482666 -62.93754578 172.91021729 C-64.49676632 177.22184239 -66.54782007 181.11077342 -68.71879578 185.14068604 C-69.61604143 186.82552317 -70.5131734 188.51042085 -71.41020203 190.19537354 C-71.87184753 191.05872314 -72.33349304 191.92207275 -72.80912781 192.81158447 C-75.10860759 197.12062002 -77.38202928 201.44330678 -79.65629578 205.76568604 C-80.06879578 206.54709961 -80.48129578 207.32851318 -80.90629578 208.13360596 C-81.29688171 208.8745752 -81.68746765 209.61554443 -82.08988953 210.37896729 C-82.42947693 211.0226123 -82.76906433 211.66625732 -83.11894226 212.32940674 C-84.51382714 215.02288145 -85.86229219 217.74017887 -87.21879578 220.45318604 C-98.10879578 220.45318604 -108.99879578 220.45318604 -120.21879578 220.45318604 C-119.09479304 213.70916962 -119.09479304 213.70916962 -117.39848328 210.85943604 C-117.0310199 210.22779541 -116.66355652 209.59615479 -116.28495789 208.94537354 C-115.89187439 208.28795166 -115.49879089 207.63052979 -115.09379578 206.95318604 C-110.81500837 199.593017 -106.9396529 192.11025536 -103.21879578 184.45318604 C-102.55879578 184.45318604 -101.89879578 184.45318604 -101.21879578 184.45318604 C-100.95067078 183.38068604 -100.68254578 182.30818604 -100.40629578 181.20318604 C-99.30975677 177.74043129 -98.38029453 176.21990444 -96.21879578 173.45318604 C-95.51517282 171.81631466 -94.81386264 170.17839706 -94.12626648 168.534729 C-92.41923048 164.61915491 -90.45698618 160.82714024 -88.53129578 157.01568604 C-88.11557312 156.18875244 -87.69985046 155.36181885 -87.27153015 154.50982666 C-86.25578614 152.49001385 -85.2381746 150.47116614 -84.21879578 148.45318604 C-83.55879578 148.45318604 -82.89879578 148.45318604 -82.21879578 148.45318604 C-81.86945984 147.25306885 -81.5201239 146.05295166 -81.16020203 144.81646729 C-78.91076715 138.07080438 -75.47882509 131.90143793 -72.15629578 125.64068604 C-71.51179012 124.41510328 -70.86790557 123.1891937 -70.22465515 121.96295166 C-69.0473867 119.72130351 -67.86729309 117.48113503 -66.68339539 115.24298096 C-65.50148755 112.99166226 -64.34447826 110.73295831 -63.21879578 108.45318604 C-62.55879578 108.45318604 -61.89879578 108.45318604 -61.21879578 108.45318604 C-60.9429364 107.57404541 -60.66707703 106.69490479 -60.38285828 105.78912354 C-59.31132111 102.71834253 -58.07591294 99.96790051 -56.59379578 97.07818604 C-54.78314096 93.52770886 -52.97802426 89.97662295 -51.22270203 86.39849854 C-45.35464386 74.46464506 -45.35464386 74.46464506 -42.71879578 70.45318604 C-39.0565192 64.86211046 -36.29224048 58.73682007 -33.34965515 52.74713135 C-31.3248289 48.63977655 -29.2696596 44.54758334 -27.21879578 40.45318604 C-26.44783759 38.9115818 -25.67699306 37.36992072 -24.90629578 35.82818604 C-24.34942078 34.71443604 -23.79254578 33.60068604 -23.21879578 32.45318604 C-22.55879578 32.45318604 -21.89879578 32.45318604 -21.21879578 32.45318604 C-20.98096375 31.64941528 -20.98096375 31.64941528 -20.73832703 30.82940674 C-18.83227985 24.72887109 -16.24756481 19.25727097 -13.21879578 13.64068604 C-12.78051453 12.80859619 -12.34223328 11.97650635 -11.89067078 11.11920166 C-9.49104306 6.6126719 -9.49104306 6.6126719 -8.21879578 4.45318604 C-7.82522888 3.71398926 -7.43166199 2.97479248 -7.02616882 2.2131958 C-4.75719208 0.00367894 -3.09572985 -0.0014604 0 0 Z " fill="#8950F9" transform="translate(297.2187957763672,89.54681396484375)"/>
<path d="M0 0 C2 3 2 3 1.75 5.625 C1.5025 6.40875 1.255 7.1925 1 8 C0.01 8.495 0.01 8.495 -1 9 C-1.69937532 10.31647119 -2.36729133 11.65022151 -3 13 C-3.33 13.33 -3.66 13.66 -4 14 C-2.35 13.34 -0.7 12.68 1 12 C0.34764225 16.43603269 -0.84455891 18.68911782 -3 23 C4.59 22.67 12.18 22.34 20 22 C20 21.34 20 20.68 20 20 C20.99 20 21.98 20 23 20 C22.34 21.98 21.68 23.96 21 26 C10.11 26 -0.78 26 -12 26 C-10.8752614 19.25156838 -10.8752614 19.25156838 -9.00390625 16.0546875 C-8.41319336 15.02794922 -8.41319336 15.02794922 -7.81054688 13.98046875 C-7.39869141 13.28566406 -6.98683594 12.59085937 -6.5625 11.875 C-5.75061235 10.47696282 -4.93939296 9.07853731 -4.12890625 7.6796875 C-3.76869385 7.06851074 -3.40848145 6.45733398 -3.03735352 5.82763672 C-1.95281505 3.91686832 -0.96627977 1.97283254 0 0 Z " fill="#8853EE" transform="translate(189,284)"/>
<path d="M0 0 C1.32 0 2.64 0 4 0 C2.29477694 5.94335055 -0.52075651 11.26290787 -3.3125 16.75 C-4.0230957 18.15765625 -4.0230957 18.15765625 -4.74804688 19.59375 C-5.6933451 21.46624224 -6.64010248 23.33799861 -7.58837891 25.20898438 C-9.74094796 29.46498048 -11.87125728 33.7320482 -14 38 C-14.66 38 -15.32 38 -16 38 C-16.66 39.32 -17.32 40.64 -18 42 C-18 40.35 -18 38.7 -18 37 C-17.34 37 -16.68 37 -16 37 C-15.67 35.35 -15.34 33.7 -15 32 C-14.34 32 -13.68 32 -13 32 C-13 30.35 -13 28.7 -13 27 C-12.01 26.67 -11.02 26.34 -10 26 C-10.08121094 25.13117188 -10.16242188 24.26234375 -10.24609375 23.3671875 C-10.75194291 14.13802113 -10.75194291 14.13802113 -8.546875 10.80078125 C-5.59094568 8.23607787 -3.98798355 7 0 7 C0 4.69 0 2.38 0 0 Z " fill="#363041" transform="translate(124,208)"/>
<path d="M0 0 C0.99 0 1.98 0 3 0 C2.34 2.31 1.68 4.62 1 7 C0.34 7 -0.32 7 -1 7 C-1.21011719 7.75925781 -1.42023438 8.51851562 -1.63671875 9.30078125 C-3.55918178 14.51732133 -6.19462738 19.29046379 -8.8125 24.1875 C-12.43378225 30.97796375 -15.89606517 37.78110438 -19.02612305 44.8137207 C-19.65388191 46.22299135 -20.31005436 47.62010871 -21 49 C-21.66 49 -22.32 49 -23 49 C-22.49287967 45.28111761 -21.88391785 42.26545761 -20 39 C-19.34 39 -18.68 39 -18 39 C-17.505 36.03 -17.505 36.03 -17 33 C-16.34 33 -15.68 33 -15 33 C-14.855625 32.05125 -14.71125 31.1025 -14.5625 30.125 C-14 27 -14 27 -13 25 C-13.66 24.34 -14.32 23.68 -15 23 C-13.88625 22.7525 -13.88625 22.7525 -12.75 22.5 C-8.73310924 20.30896868 -7.55342612 17.19425051 -6 13 C-5.2216223 9.68416549 -5.2216223 9.68416549 -5 7 C-4.01 7 -3.02 7 -2 7 C-1.855625 6.401875 -1.71125 5.80375 -1.5625 5.1875 C-1.1127561 3.43849596 -0.57107659 1.71322977 0 0 Z " fill="#8254E0" transform="translate(305,121)"/>
<path d="M0 0 C0.33 0 0.66 0 1 0 C0.4140625 6.15234375 0.4140625 6.15234375 0 8 C-0.99 8.495 -0.99 8.495 -2 9 C-4.11348695 12.46611859 -4.98643279 14.78970819 -5.25 18.875 C-5.65116904 23.52856089 -8.11559712 25.91429855 -11.30859375 29.140625 C-13.00274092 31.00301311 -13.99053903 32.70715397 -15 35 C-15.66 35 -16.32 35 -17 35 C-17 36.65 -17 38.3 -17 40 C-18.98 40.495 -18.98 40.495 -21 41 C-20.401875 39.845 -19.80375 38.69 -19.1875 37.5 C-17.81229205 34.77803667 -16.76852541 32.29339337 -15.8125 29.375 C-14.09903334 24.54873556 -11.15849464 20.46723023 -8.34692383 16.23095703 C-5.35084916 11.67366921 -2.99499294 7.08248202 -1 2 C-0.67 1.34 -0.34 0.68 0 0 Z " fill="#8355E4" transform="translate(173,124)"/>
<path d="M0 0 C0.33 0.66 0.66 1.32 1 2 C0.67 2.66 0.34 3.32 0 4 C-0.66 4 -1.32 4 -2 4 C-2.36158203 5.22783203 -2.36158203 5.22783203 -2.73046875 6.48046875 C-4.23698969 10.65700833 -6.20188074 14.41560573 -8.3125 18.3125 C-8.71549316 19.066521 -9.11848633 19.82054199 -9.53369141 20.59741211 C-11.59791252 24.44860192 -13.70631698 28.26896274 -15.875 32.0625 C-18.04688519 35.91026891 -19.55814752 39.8262165 -21 44 C-21.33 44 -21.66 44 -22 44 C-21.35298473 36.55932434 -19.36276399 29.34846329 -14 24 C-13.08463954 22.00012673 -13.08463954 22.00012673 -12.4375 19.875 C-11.74609375 17.7421875 -11.74609375 17.7421875 -11 16 C-10.34 15.67 -9.68 15.34 -9 15 C-8.7834375 13.824375 -8.7834375 13.824375 -8.5625 12.625 C-7.9164602 9.61014759 -7.11046319 9.11046319 -5 7 C-4.67 5.96875 -4.34 4.9375 -4 3.875 C-3.67 2.92625 -3.34 1.9775 -3 1 C-2.01 0.67 -1.02 0.34 0 0 Z " fill="#3E2A5B" transform="translate(236,194)"/>
<path d="M0 0 C0.33 0 0.66 0 1 0 C1.84446902 2.70230087 2.31880848 4.24047739 2 7 C0.38885241 9.21154843 -1.43315613 11.0595408 -3.34375 13.015625 C-5.71274532 15.85394958 -5.86065948 18.37714636 -6 22 C-6.30903983 23.33917261 -6.62942911 24.67653254 -7 26 C-7 25.01 -7 24.02 -7 23 C-8.32 23 -9.64 23 -11 23 C-10.938125 23.7425 -10.87625 24.485 -10.8125 25.25 C-11.03239994 28.47519908 -11.78252188 29.69723426 -14 32 C-14.66 32 -15.32 32 -16 32 C-14.55415577 27.16312936 -12.53438293 22.96477401 -10.125 18.5625 C-9.78597656 17.93279297 -9.44695312 17.30308594 -9.09765625 16.65429688 C-7.37785913 13.47299916 -5.61859182 10.31727622 -3.8203125 7.1796875 C-2.46424291 4.81093075 -1.18009655 2.45853449 0 0 Z " fill="#41315D" transform="translate(214,110)"/>
<path d="M0 0 C0.33 1.32 0.66 2.64 1 4 C0.34 4 -0.32 4 -1 4 C-1 4.99 -1 5.98 -1 7 C8.57 6.67 18.14 6.34 28 6 C28.33 5.01 28.66 4.02 29 3 C29.99 3 30.98 3 32 3 C31.34 4.98 30.68 6.96 30 9 C19.11 9 8.22 9 -3 9 C-2 3 -2 3 0 0 Z " fill="#7050B3" transform="translate(180,301)"/>
<path d="M0 0 C0.33 0 0.66 0 1 0 C1 2.31 1 4.62 1 7 C0.01 7.495 0.01 7.495 -1 8 C-2.05352843 10.30965848 -3.05719096 12.6429774 -4 15 C-4.66 15 -5.32 15 -6 15 C-6.11214844 15.71542969 -6.22429687 16.43085938 -6.33984375 17.16796875 C-7.04456005 20.19115998 -8.13287798 22.56322688 -9.5625 25.3125 C-10.01753906 26.19550781 -10.47257812 27.07851562 -10.94140625 27.98828125 C-11.46541016 28.98408203 -11.46541016 28.98408203 -12 30 C-12.66 30 -13.32 30 -14 30 C-14.33 31.32 -14.66 32.64 -15 34 C-15.66 34 -16.32 34 -17 34 C-15.50829734 29.0276578 -13.39542583 24.58154261 -11 20 C-10.34 20 -9.68 20 -9 20 C-8.62875 18.741875 -8.2575 17.48375 -7.875 16.1875 C-5.96808578 10.40227233 -3.03686412 5.25800098 0 0 Z " fill="#7B53D2" transform="translate(119,226)"/>
<path d="M0 0 C0.33 1.32 0.66 2.64 1 4 C10.9 4 20.8 4 31 4 C31 3.01 31 2.02 31 1 C31.99 0.67 32.98 0.34 34 0 C33.34 1.98 32.68 3.96 32 6 C20.78 6 9.56 6 -2 6 C-1 1 -1 1 0 0 Z " fill="#6E4FAE" transform="translate(78,304)"/>
<path d="M0 0 C11.22 0 22.44 0 34 0 C32.875 7.875 32.875 7.875 32 11 C31.34 11 30.68 11 30 11 C30.061875 11.7425 30.12375 12.485 30.1875 13.25 C29.96646289 16.49187763 29.27837542 17.72162458 27 20 C26.01 20 25.02 20 24 20 C25.35808352 14.83928262 27.84968501 10.74292191 30.66015625 6.26953125 C32.12903566 3.96285499 32.12903566 3.96285499 33 1 C22.11 1 11.22 1 0 1 C0 0.67 0 0.34 0 0 Z " fill="#4E3974" transform="translate(191,90)"/>
<path d="M0 0 C0.66 0.99 1.32 1.98 2 3 C1.00691021 6.52095473 -0.53696474 9.30440954 -3 12 C-5.10961914 12.43823242 -5.10961914 12.43823242 -7.53515625 12.35546875 C-8.42783203 12.33806641 -9.32050781 12.32066406 -10.24023438 12.30273438 C-11.17158203 12.26470703 -12.10292969 12.22667969 -13.0625 12.1875 C-14.88657611 12.13419485 -16.71080891 12.08600196 -18.53515625 12.04296875 C-19.43637207 12.01895996 -20.33758789 11.99495117 -21.26611328 11.97021484 C-24.86651118 12.00944047 -28.35366517 12.48987454 -31.90405273 13.06762695 C-34 13 -34 13 -37 10 C-26.11 10 -15.22 10 -4 10 C-3.67 8.68 -3.34 7.36 -3 6 C-2.03112419 3.98473831 -1.0358679 1.98166034 0 0 Z " fill="#35284A" transform="translate(214,300)"/>
<path d="M0 0 C10.56 0 21.12 0 32 0 C31.08541782 3.65832872 29.99523834 5.87701826 28 9 C27.67 7.68 27.34 6.36 27 5 C27.66 5 28.32 5 29 5 C29 4.01 29 3.02 29 2 C19.1 2 9.2 2 -1 2 C-0.67 1.34 -0.34 0.68 0 0 Z " fill="#7151B4" transform="translate(292,90)"/>
<path d="M0 0 C11.22 0 22.44 0 34 0 C33.16502059 4.17489706 32.73512692 5.85441953 30.5625 9.1875 C29.91474609 10.19876953 29.91474609 10.19876953 29.25390625 11.23046875 C28 13 28 13 26 15 C26.5648582 10.29284832 27.47524303 6.57427092 29 2 C15.14 1.505 15.14 1.505 1 1 C1 1.99 1 2.98 1 4 C0.34 4 -0.32 4 -1 4 C-0.67 2.68 -0.34 1.36 0 0 Z " fill="#7F58D0" transform="translate(190,91)"/>
<path d="M0 0 C0.66 0 1.32 0 2 0 C0.49656668 6.38959162 0.49656668 6.38959162 -1.7890625 9.19921875 C-4.60723631 12.76923751 -6.55809996 16.58765525 -8.625 20.625 C-9.4074451 22.13875 -10.19124704 23.65179962 -10.9765625 25.1640625 C-11.31768066 25.82873535 -11.65879883 26.4934082 -12.01025391 27.17822266 C-13 29 -13 29 -15 32 C-14.59433412 26.01642834 -13.85099828 23.6678767 -10 19 C-9.09880966 16.3462185 -8.56052048 13.75589236 -8 11 C-7.34 11 -6.68 11 -6 11 C-5.34 9.35 -4.68 7.7 -4 6 C-3.34 6 -2.68 6 -2 6 C-1.855625 5.195625 -1.71125 4.39125 -1.5625 3.5625 C-1 1 -1 1 0 0 Z " fill="#8058D5" transform="translate(152,224)"/>
<path d="M0 0 C0.66 0 1.32 0 2 0 C0.65227453 4.63367467 -1.25805211 8.26857487 -3.875 12.3125 C-6.75041451 16.8262923 -9.23338905 21.31213411 -11.2109375 26.29296875 C-12 28 -12 28 -14 30 C-14.125 24.25 -14.125 24.25 -13 22 C-12.34 22 -11.68 22 -11 22 C-11.33 21.236875 -11.66 20.47375 -12 19.6875 C-13 17 -13 17 -13 14 C-11 14 -11 14 -9.375 15.5 C-8.92125 15.995 -8.4675 16.49 -8 17 C-7.34 14.69 -6.68 12.38 -6 10 C-5.34 10 -4.68 10 -4 10 C-4 8.02 -4 6.04 -4 4 C-2.68 4 -1.36 4 0 4 C0 2.68 0 1.36 0 0 Z " fill="#352E47" transform="translate(168,130)"/>
<path d="M0 0 C0.66 0 1.32 0 2 0 C0.53377959 5.04944355 -1.68512524 9.24415742 -4.3125 13.75 C-8.64654063 21.31655962 -12.82218413 28.86308135 -16 37 C-16.33 37 -16.66 37 -17 37 C-16.67 34.36 -16.34 31.72 -16 29 C-15.34 29 -14.68 29 -14 29 C-13.67 27.35 -13.34 25.7 -13 24 C-12.34 24 -11.68 24 -11 24 C-11 22.68 -11 21.36 -11 20 C-10.34 20 -9.68 20 -9 20 C-8.87753906 19.44828125 -8.75507813 18.8965625 -8.62890625 18.328125 C-7.92006389 15.70408745 -6.96388744 13.2663047 -5.9375 10.75 C-5.57527344 9.85796875 -5.21304688 8.9659375 -4.83984375 8.046875 C-4.56269531 7.37140625 -4.28554687 6.6959375 -4 6 C-3.34 6 -2.68 6 -2 6 C-1.855625 5.38125 -1.71125 4.7625 -1.5625 4.125 C-1 2 -1 2 0 0 Z " fill="#8057D5" transform="translate(205,123)"/>
<path d="M0 0 C0.33 0 0.66 0 1 0 C1.0270043 1.45823212 1.04639787 2.91660675 1.0625 4.375 C1.07410156 5.18710938 1.08570313 5.99921875 1.09765625 6.8359375 C1 9 1 9 0 11 C-0.99 11.33 -1.98 11.66 -3 12 C-3.28875 12.86625 -3.5775 13.7325 -3.875 14.625 C-5.20727567 18.62182701 -7.13419598 21.89537898 -10 25 C-10.66 25 -11.32 25 -12 25 C-10.69733046 19.70112024 -8.80586354 15.47368997 -6 10.8125 C-2.83920665 5.49415896 -2.83920665 5.49415896 0 0 Z " fill="#422F64" transform="translate(252,228)"/>
<path d="M0 0 C1 2 1 2 -0.1875 5.75 C-1.27237665 8.5169331 -2.35346055 10.51412443 -4.0625 13 C-5.81209465 15.70904979 -6.36780781 17.09271533 -7 20.125 C-7.78140106 23.81377619 -9.06667577 25.53979258 -12 28 C-12.33 28.66 -12.66 29.32 -13 30 C-13.66 30 -14.32 30 -15 30 C-13.4496676 24.70864811 -11.09449988 20.08256687 -8.5 15.25 C-8.09652344 14.48300781 -7.69304687 13.71601563 -7.27734375 12.92578125 C-4.26051457 7.26051457 -4.26051457 7.26051457 -2 5 C-1.29289322 3.35008418 -0.62056011 1.68437744 0 0 Z " fill="#432F67" transform="translate(174,186)"/>
<path d="M0 0 C1.36124019 3.0937277 0.91936253 4.22578492 -0.25 7.5 C-2 11 -2 11 -3.5625 13.0625 C-5.19219869 15.03691361 -5.19219869 15.03691361 -5.9375 18 C-7.10503202 21.29656101 -8.48527126 22.64751182 -11 25 C-11.33 25.99 -11.66 26.98 -12 28 C-12.66 28 -13.32 28 -14 28 C-12.32337853 23.55781735 -10.25504121 19.36132731 -8.125 15.125 C-7.78597656 14.44308594 -7.44695312 13.76117188 -7.09765625 13.05859375 C-4.87233989 8.61642232 -2.49996986 4.29367021 0 0 Z " fill="#423065" transform="translate(149,233)"/>
<path d="M0 0 C0.33 0 0.66 0 1 0 C1.3125 2.625 1.3125 2.625 1 6 C-0.23091673 7.425272 -1.46688547 8.84759587 -2.7578125 10.21875 C-4.80027384 13.14756249 -5.11394608 16.3520441 -5.640625 19.828125 C-6.27083524 23.63678687 -8.19668107 25.45152824 -11 28 C-11.66 28 -12.32 28 -13 28 C-12.10619215 25.04355863 -11.24052314 22.39358332 -9.625 19.75 C-8.13131208 17.22222044 -7.11457712 14.85627472 -6.0625 12.125 C-4.38712631 7.80395897 -2.40761849 3.95537323 0 0 Z " fill="#382D45" transform="translate(197,142)"/>
<path d="M0 0 C0.99 0 1.98 0 3 0 C1.61587429 3.67991116 -0.06097484 7.01996816 -2 10.4375 C-4.09696656 14.22226892 -5.8645936 17.79899631 -7 22 C-7.66 22 -8.32 22 -9 22 C-9.66 23.98 -10.32 25.96 -11 28 C-12.09362142 24.74829897 -11.93111886 23.02646111 -10.625 19.875 C-10.34914062 19.19179688 -10.07328125 18.50859375 -9.7890625 17.8046875 C-9.22762922 16.52061734 -8.62674453 15.25348905 -8 14 C-7.34 14 -6.68 14 -6 14 C-4.92474806 11.34771188 -3.90543849 8.71631546 -3 6 C-2.34 6 -1.68 6 -1 6 C-0.67 4.02 -0.34 2.04 0 0 Z " fill="#8054DA" transform="translate(244,238)"/>
<path d="M0 0 C1 3 1 3 -0.625 6.5 C-0.99367187 7.1909375 -1.36234375 7.881875 -1.7421875 8.59375 C-3.18437425 11.35271595 -4.47011281 14.16230725 -5.75 17 C-6.17796875 17.94875 -6.6059375 18.8975 -7.046875 19.875 C-7.36140625 20.57625 -7.6759375 21.2775 -8 22 C-8.66 22 -9.32 22 -10 22 C-10.28875 22.94875 -10.5775 23.8975 -10.875 24.875 C-12 28 -12 28 -14 30 C-13.74185254 24.06260853 -11.6658536 20.47330922 -8.4921875 15.5078125 C-7.10331902 13.17364087 -6.13927853 10.99532175 -5.25 8.4375 C-4 5 -4 5 -2 4 C-0.86649466 1.98330173 -0.86649466 1.98330173 0 0 Z " fill="#3D2C58" transform="translate(189,90)"/>
<path d="M0 0 C0.33 0 0.66 0 1 0 C0 8.57142857 0 8.57142857 -1 12 C-2.32 12.33 -3.64 12.66 -5 13 C-5.103125 13.886875 -5.20625 14.77375 -5.3125 15.6875 C-6.02096487 19.10101256 -6.88882698 21.23923528 -9 24 C-9.99 24 -10.98 24 -12 24 C-10.66820127 18.93916484 -8.25336227 14.95029191 -5.53125 10.546875 C-3.47218359 7.12210128 -1.73294371 3.59919078 0 0 Z " fill="#7C52D3" transform="translate(101,260)"/>
<path d="M0 0 C0.33 0 0.66 0 1 0 C1.72737201 6.91003413 1.72737201 6.91003413 -0.30078125 9.94921875 C-1.36299304 11.11790523 -2.4585118 12.25746303 -3.58984375 13.359375 C-5.18919347 15.22011428 -5.58911122 16.60748307 -6 19 C-6.66 19 -7.32 19 -8 19 C-8.33 20.32 -8.66 21.64 -9 23 C-9.66 23 -10.32 23 -11 23 C-9.69000657 17.65714723 -7.76107667 13.3900937 -4.9375 8.6875 C-4.21721431 7.4623769 -3.49715199 6.23712243 -2.77734375 5.01171875 C-1.89755859 3.52091797 -1.89755859 3.52091797 -1 2 C-0.67 1.34 -0.34 0.68 0 0 Z " fill="#382C42" transform="translate(230,270)"/>
<path d="M0 0 C0.33 0 0.66 0 1 0 C1.28247668 4.89626238 1.21645835 7.2887019 -2 11 C-2.33 11.886875 -2.66 12.77375 -3 13.6875 C-3.33 14.450625 -3.66 15.21375 -4 16 C-4.99 16.33 -5.98 16.66 -7 17 C-7.73323796 19.01508358 -7.73323796 19.01508358 -8 21 C-8.66 21 -9.32 21 -10 21 C-8.68277405 15.61323913 -6.716278 11.30632987 -3.875 6.5625 C-3.50246094 5.92634766 -3.12992188 5.29019531 -2.74609375 4.63476562 C-1.83765501 3.08576111 -0.91980703 1.54228109 0 0 Z " fill="#7B50D1" transform="translate(141,184)"/>
<path d="M0 0 C0.99 0.33 1.98 0.66 3 1 C-5.57446809 18.34042553 -5.57446809 18.34042553 -10 26 C-11 23 -11 23 -9.6875 20.1875 C-8.8521875 18.6096875 -8.8521875 18.6096875 -8 17 C-7.29835358 15.01200182 -6.62627128 13.01301483 -6 11 C-5.67 10.01 -5.34 9.02 -5 8 C-5 8.66 -5 9.32 -5 10 C-4.34 10 -3.68 10 -3 10 C-2.67 8.02 -2.34 6.04 -2 4 C-1.34 4 -0.68 4 0 4 C0 2.68 0 1.36 0 0 Z " fill="#7E54DB" transform="translate(268,192)"/>
<path d="M0 0 C0.6875 1.6875 0.6875 1.6875 1 4 C0.05184571 5.69669715 -0.96344932 7.35581617 -2 9 C-3.41946759 12.30026216 -4.71654568 15.64477679 -6 19 C-6.66 19 -7.32 19 -8 19 C-8.99 21.475 -8.99 21.475 -10 24 C-10.66 24 -11.32 24 -12 24 C-10.68938409 19.76570244 -9.05643741 15.92592596 -7 12 C-6.34 12 -5.68 12 -5 12 C-4.80664062 11.30132812 -4.61328125 10.60265625 -4.4140625 9.8828125 C-4.15367187 8.97273438 -3.89328125 8.06265625 -3.625 7.125 C-3.24214844 5.76761719 -3.24214844 5.76761719 -2.8515625 4.3828125 C-2 2 -2 2 0 0 Z " fill="#7C54D2" transform="translate(186,100)"/>
<path d="M0 0 C0.99828099 3.12214056 1.12380858 3.72880026 -0.3125 6.875 C-0.869375 7.90625 -1.42625 8.9375 -2 10 C-2.69971973 11.98867713 -3.37664397 13.98608051 -4 16 C-4.66 16 -5.32 16 -6 16 C-6.28875 16.928125 -6.5775 17.85625 -6.875 18.8125 C-8 22 -8 22 -10 25 C-10.66 25 -11.32 25 -12 25 C-10.37317535 19.29676416 -7.66802013 14.31986097 -4.875 9.125 C-4.40707031 8.24585938 -3.93914062 7.36671875 -3.45703125 6.4609375 C-2.3087907 4.30505729 -1.15636097 2.15153223 0 0 Z " fill="#7951CB" transform="translate(234,198)"/>
<path d="M0 0 C0.66 0 1.32 0 2 0 C-0.58291683 8.75321816 -4.34771173 16.78323908 -10 24 C-10.46213542 18.22330721 -9.44844595 15.59792794 -6 11 C-5.67 10.01 -5.34 9.02 -5 8 C-4.34 8 -3.68 8 -3 8 C-2.67 6.02 -2.34 4.04 -2 2 C-1.34 2 -0.68 2 0 2 C0 1.34 0 0.68 0 0 Z " fill="#3D2E5C" transform="translate(247,170)"/>
<path d="M0 0 C0.33 0 0.66 0 1 0 C1.1875 2.8125 1.1875 2.8125 1 6 C-0.4375 7.625 -0.4375 7.625 -2 9 C-2.71447643 11.10332891 -2.71447643 11.10332891 -3 13 C-3.66 13 -4.32 13 -5 13 C-5.66 15.97 -6.32 18.94 -7 22 C-7.99 22 -8.98 22 -10 22 C-10 22.66 -10 23.32 -10 24 C-10.66 24 -11.32 24 -12 24 C-11.34 22.02 -10.68 20.04 -10 18 C-9.34 18 -8.68 18 -8 18 C-7.84144531 17.45472656 -7.68289063 16.90945312 -7.51953125 16.34765625 C-5.69131717 10.43878753 -3.17078876 5.30135828 0 0 Z " fill="#402E59" transform="translate(292,152)"/>
<path d="M0 0 C1.4301492 3.80456358 0.53792878 6.29670823 -0.75 10.0625 C-1.09546875 11.10535156 -1.4409375 12.14820313 -1.796875 13.22265625 C-2.93799482 15.85686467 -3.69836961 17.32027479 -6 19 C-6.99 19 -7.98 19 -9 19 C-7.8905928 15.51329166 -6.73662334 12.22515763 -5 9 C-4.34 9 -3.68 9 -3 9 C-2.690625 7.88625 -2.38125 6.7725 -2.0625 5.625 C-1 2 -1 2 0 0 Z " fill="#7A52CF" transform="translate(199,265)"/>
<path d="M0 0 C0 3.19610552 -0.54671542 4.41717626 -2 7.1875 C-2.37125 7.90292969 -2.7425 8.61835938 -3.125 9.35546875 C-3.41375 9.89816406 -3.7025 10.44085938 -4 11 C-4.66 11 -5.32 11 -6 11 C-6.4021875 12.3303125 -6.4021875 12.3303125 -6.8125 13.6875 C-7.92474365 16.79007439 -9.2815423 19.20750624 -11 22 C-11.69822617 23.65369357 -12.37498605 25.31727014 -13 27 C-14 25 -14 25 -13.1875 22.1875 C-12.16400226 19.44021658 -11.11622346 16.71082841 -10 14 C-9.34 14 -8.68 14 -8 14 C-7.814375 12.8553125 -7.814375 12.8553125 -7.625 11.6875 C-7 9 -7 9 -5 6 C-4.34 6 -3.68 6 -3 6 C-3 4.68 -3 3.36 -3 2 C-2.01 1.34 -1.02 0.68 0 0 Z " fill="#7550C4" transform="translate(185,165)"/>
<path d="M0 0 C0.99 0 1.98 0 3 0 C1.35433477 5.68502535 -1.29032784 10.76681636 -4 16 C-4.66 16 -5.32 16 -6 16 C-6.66 17.32 -7.32 18.64 -8 20 C-8 18.35 -8 16.7 -8 15 C-7.34 15 -6.68 15 -6 15 C-5.67 13.35 -5.34 11.7 -5 10 C-4.34 10 -3.68 10 -3 10 C-3 8.35 -3 6.7 -3 5 C-2.01 4.67 -1.02 4.34 0 4 C0 2.68 0 1.36 0 0 Z " fill="#412F5C" transform="translate(114,230)"/>
<path d="M0 0 C2.1519437 3.22791555 2.20086443 4.28400809 2 8 C0.35 8.66 -1.3 9.32 -3 10 C-3 10.99 -3 11.98 -3 13 C-3.66 13 -4.32 13 -5 13 C-5 13.66 -5 14.32 -5 15 C-5.66 15 -6.32 15 -7 15 C-5.68938409 10.76570244 -4.05643741 6.92592596 -2 3 C-1.34 3 -0.68 3 0 3 C0 2.01 0 1.02 0 0 Z " fill="#3F3159" transform="translate(306,125)"/>
<path d="M0 0 C-0.42594588 1.44096586 -0.86626633 2.87768712 -1.3125 4.3125 C-1.55613281 5.11300781 -1.79976562 5.91351563 -2.05078125 6.73828125 C-3.05075979 9.12094616 -4.13712406 10.25861597 -6 12 C-6.71447643 14.10332891 -6.71447643 14.10332891 -7 16 C-7.99 15.67 -8.98 15.34 -10 15 C-6.41747573 0 -6.41747573 0 0 0 Z " fill="#3D2E59" transform="translate(83,294)"/>
<path d="M0 0 C0.66 0 1.32 0 2 0 C1.67 1.98 1.34 3.96 1 6 C0.34 6 -0.32 6 -1 6 C-1.226875 6.78375 -1.45375 7.5675 -1.6875 8.375 C-3.40660933 13.12301625 -5.68084721 17.52102552 -8 22 C-9.3340394 17.99788181 -8.40012984 15.92036356 -7 12 C-6.52433594 11.52949219 -6.04867187 11.05898438 -5.55859375 10.57421875 C-3.65731106 8.65387558 -2.85612011 6.79559612 -1.8125 4.3125 C-1.46832031 3.50425781 -1.12414062 2.69601562 -0.76953125 1.86328125 C-0.51558594 1.24839844 -0.26164063 0.63351562 0 0 Z " fill="#3E2C5C" transform="translate(195,268)"/>
<path d="M0 0 C0.33 0 0.66 0 1 0 C0.67 2.97 0.34 5.94 0 9 C-0.66 9 -1.32 9 -2 9 C-1.67 9.99 -1.34 10.98 -1 12 C-1.99 12.66 -2.98 13.32 -4 14 C-4.33 14.99 -4.66 15.98 -5 17 C-5.99 17 -6.98 17 -8 17 C-7.34 15.02 -6.68 13.04 -6 11 C-5.34 11 -4.68 11 -4 11 C-3.896875 10.29875 -3.79375 9.5975 -3.6875 8.875 C-2.90640997 5.60862353 -1.57941257 2.9528148 0 0 Z " fill="#41315E" transform="translate(134,261)"/>
<path d="M0 0 C0.99 0 1.98 0 3 0 C1.27502493 4.6029598 -0.9095871 8.93255824 -3.125 13.3125 C-3.49753906 14.05306641 -3.87007812 14.79363281 -4.25390625 15.55664062 C-5.16744806 17.37201217 -6.08347487 19.18613282 -7 21 C-7.33 21 -7.66 21 -8 21 C-8 19.02 -8 17.04 -8 15 C-7.01 14.67 -6.02 14.34 -5 14 C-5 12.35 -5 10.7 -5 9 C-4.34 8.67 -3.68 8.34 -3 8 C-2.09656316 6.11736119 -2.09656316 6.11736119 -1.375 3.9375 C-0.98441406 2.83728516 -0.98441406 2.83728516 -0.5859375 1.71484375 C-0.39257812 1.14894531 -0.19921875 0.58304688 0 0 Z " fill="#3B2A57" transform="translate(145,171)"/>
<path d="M0 0 C0 3.39022965 -0.7507523 4.78314006 -2.3125 7.75 C-4.39159522 11.77824699 -6.26992747 15.81140336 -8 20 C-8.66 20 -9.32 20 -10 20 C-9.49287967 16.28111761 -8.88391785 13.26545761 -7 10 C-6.34 10 -5.68 10 -5 10 C-4.67 8.02 -4.34 6.04 -4 4 C-3.34 4 -2.68 4 -2 4 C-2 3.01 -2 2.02 -2 1 C-1.34 0.67 -0.68 0.34 0 0 Z " fill="#7B54D2" transform="translate(292,150)"/>
<path d="M0 0 C0.66 0.33 1.32 0.66 2 1 C0.55099852 3.81740393 -0.91073706 6.62800163 -2.375 9.4375 C-2.7875 10.23994141 -3.2 11.04238281 -3.625 11.86914062 C-4.02460938 12.63291016 -4.42421875 13.39667969 -4.8359375 14.18359375 C-5.20251465 14.89056396 -5.5690918 15.59753418 -5.94677734 16.32592773 C-7 18 -7 18 -9 19 C-8.67 17.02 -8.34 15.04 -8 13 C-7.34 13 -6.68 13 -6 13 C-5.896875 11.948125 -5.79375 10.89625 -5.6875 9.8125 C-5.01784508 6.09895906 -4.21100393 4.00696535 -2 1 C-1.34 0.67 -0.68 0.34 0 0 Z " fill="#8256DC" transform="translate(318,99)"/>
<path d="M0 0 C3.3 0 6.6 0 10 0 C10 0.33 10 0.66 10 1 C7.36 1.33 4.72 1.66 2 2 C1.88527344 2.57234375 1.77054687 3.1446875 1.65234375 3.734375 C0.93817644 6.21471656 -0.07307872 8.06368697 -1.4375 10.25 C-1.86933594 10.95640625 -2.30117188 11.6628125 -2.74609375 12.390625 C-3.36677734 13.18726562 -3.36677734 13.18726562 -4 14 C-4.66 14 -5.32 14 -6 14 C-4.50111257 9.00370856 -2.38829052 4.61736167 0 0 Z " fill="#7D53D7" transform="translate(290,92)"/>
<path d="M0 0 C0.99 0 1.98 0 3 0 C1.16508812 4.74018901 -0.91941459 9.36413251 -3 14 C-3.66 14 -4.32 14 -5 14 C-5.66 15.98 -6.32 17.96 -7 20 C-7.33 20 -7.66 20 -8 20 C-8 18.35 -8 16.7 -8 15 C-7.34 15 -6.68 15 -6 15 C-5.87625 14.21625 -5.7525 13.4325 -5.625 12.625 C-5 10 -5 10 -3 8 C-2.11221308 6.03511169 -2.11221308 6.03511169 -1.375 3.875 C-0.98441406 2.78832031 -0.98441406 2.78832031 -0.5859375 1.6796875 C-0.29589844 0.84824219 -0.29589844 0.84824219 0 0 Z " fill="#3D2D57" transform="translate(279,108)"/>
<path d="M0 0 C0.33 0 0.66 0 1 0 C1.81582766 6.25467874 -0.22810547 9.76825789 -3.4921875 15.05859375 C-3.98976563 15.69925781 -4.48734375 16.33992188 -5 17 C-5.66 17 -6.32 17 -7 17 C-5.1668733 11.00067626 -2.92678249 5.55079437 0 0 Z " fill="#8055D7" transform="translate(86,288)"/>
<path d="M0 0 C2 3 2 3 1.75 5.625 C1.5025 6.40875 1.255 7.1925 1 8 C0.01 8.495 0.01 8.495 -1 9 C-2.13350534 11.01669827 -2.13350534 11.01669827 -3 13 C-3.66 13 -4.32 13 -5 13 C-5.33 14.32 -5.66 15.64 -6 17 C-6.66 17 -7.32 17 -8 17 C-6.51095825 13.10391502 -4.75621287 9.40902982 -2.875 5.6875 C-2.06675781 4.08455078 -2.06675781 4.08455078 -1.2421875 2.44921875 C-0.62730469 1.23685547 -0.62730469 1.23685547 0 0 Z " fill="#7E52DE" transform="translate(189,284)"/>
<path d="M0 0 C0.66 0.99 1.32 1.98 2 3 C1.51789063 3.79664063 1.03578125 4.59328125 0.5390625 5.4140625 C-0.40839844 7.00347656 -0.40839844 7.00347656 -1.375 8.625 C-2.00148437 9.66914063 -2.62796875 10.71328125 -3.2734375 11.7890625 C-4.90451153 14.82241736 -6.02076833 17.70622076 -7 21 C-7.33 21 -7.66 21 -8 21 C-8 18.69 -8 16.38 -8 14 C-7.34 14 -6.68 14 -6 14 C-5.67 12.35 -5.34 10.7 -5 9 C-4.34 9 -3.68 9 -3 9 C-2.67 7.02 -2.34 5.04 -2 3 C-1.34 3 -0.68 3 0 3 C0 2.01 0 1.02 0 0 Z " fill="#3D2D53" transform="translate(184,289)"/>
<path d="M0 0 C0.33 0 0.66 0 1 0 C1 2.31 1 4.62 1 7 C0.01 7.495 0.01 7.495 -1 8 C-2.05352843 10.30965848 -3.05719096 12.6429774 -4 15 C-4.66 15 -5.32 15 -6 15 C-6.33 16.32 -6.66 17.64 -7 19 C-6.71769203 11.51883867 -3.81655817 6.34925886 0 0 Z " fill="#8055DE" transform="translate(119,226)"/>
<path d="M0 0 C0.99 0 1.98 0 3 0 C1.55676531 4.73789165 -0.37226733 8.98858151 -2.625 13.375 C-2.94984375 14.01566406 -3.2746875 14.65632812 -3.609375 15.31640625 C-4.40257407 16.87947501 -5.20077031 18.44000622 -6 20 C-6.93423645 16.98968256 -7.04449911 16.13349732 -6 13 C-5.34 13 -4.68 13 -4 13 C-4 10.69 -4 8.38 -4 6 C-3.01 6.33 -2.02 6.66 -1 7 C-0.67 4.69 -0.34 2.38 0 0 Z " fill="#7F56D6" transform="translate(161,204)"/>
<path d="M0 0 C0.66 0 1.32 0 2 0 C0.55676531 4.73789165 -1.37226733 8.98858151 -3.625 13.375 C-3.94984375 14.01566406 -4.2746875 14.65632812 -4.609375 15.31640625 C-5.40257407 16.87947501 -6.20077031 18.44000622 -7 20 C-7.99828099 16.87785944 -8.12380858 16.27119974 -6.6875 13.125 C-6.130625 12.09375 -5.57375 11.0625 -5 10 C-4.67 8.96875 -4.34 7.9375 -4 6.875 C-3.01562625 4.04492546 -2.02496413 2.19371115 0 0 Z " fill="#7E55D1" transform="translate(255,218)"/>
<path d="M0 0 C0.33 0.66 0.66 1.32 1 2 C-0.109375 4.2421875 -0.109375 4.2421875 -1.75 6.875 C-2.28109375 7.73867187 -2.8121875 8.60234375 -3.359375 9.4921875 C-4.8270203 11.73558817 -6.36225802 13.87882816 -8 16 C-8 13.69 -8 11.38 -8 9 C-7.01 9 -6.02 9 -5 9 C-5.226875 8.236875 -5.45375 7.47375 -5.6875 6.6875 C-6 4 -6 4 -4.75 2.25 C-3 1 -3 1 0 0 Z " fill="#3A2E53" transform="translate(257,154)"/>
<path d="M0 0 C0.33 0 0.66 0 1 0 C1 1.65 1 3.3 1 5 C0.34 5 -0.32 5 -1 5 C-1.1546875 6.0209375 -1.1546875 6.0209375 -1.3125 7.0625 C-2.77071199 13.29304214 -4.62125377 17.36571201 -10 21 C-8.51991304 15.99886406 -6.3681664 11.67084403 -3.875 7.125 C-3.50246094 6.43664062 -3.12992187 5.74828125 -2.74609375 5.0390625 C-1.83500474 3.35705202 -0.91809685 1.67819564 0 0 Z " fill="#3F2E61" transform="translate(274,186)"/>
<path d="M0 0 C0.33 0 0.66 0 1 0 C1.125 5.75 1.125 5.75 0 8 C-0.66 8 -1.32 8 -2 8 C-2.0825 8.53625 -2.165 9.0725 -2.25 9.625 C-3.26376098 12.8352431 -5.07160549 15.26292392 -7 18 C-7.33 17.34 -7.66 16.68 -8 16 C-7.37915039 14.30419922 -7.37915039 14.30419922 -6.34765625 12.3046875 C-5.98349609 11.58925781 -5.61933594 10.87382812 -5.24414062 10.13671875 C-4.85419922 9.39035156 -4.46425781 8.64398438 -4.0625 7.875 C-3.67642578 7.12089844 -3.29035156 6.36679687 -2.89257812 5.58984375 C-1.93547868 3.72290903 -0.96863894 1.86097372 0 0 Z " fill="#402E5E" transform="translate(125,278)"/>
<path d="M0 0 C1.13583456 3.71727674 0.66670026 5.47051709 -1 9 C-1.66 9 -2.32 9 -3 9 C-3 9.66 -3 10.32 -3 11 C-3.66 11 -4.32 11 -5 11 C-5.33 12.65 -5.66 14.3 -6 16 C-6.66 16 -7.32 16 -8 16 C-6.42986223 10.03347646 -3.24970218 5.17090975 0 0 Z " fill="#433066" transform="translate(263,208)"/>
<path d="M0 0 C0.99 0.33 1.98 0.66 3 1 C0.36 6.28 -2.28 11.56 -5 17 C-5.33 17 -5.66 17 -6 17 C-5.25 9.375 -5.25 9.375 -3 6 C-2.34 6 -1.68 6 -1 6 C-0.67 4.02 -0.34 2.04 0 0 Z " fill="#8257DB" transform="translate(224,276)"/>
<path d="M0 0 C0.66 0 1.32 0 2 0 C2.3763524 3.9517002 2.09508438 5.82294633 0.1875 9.375 C-0.534375 10.24125 -1.25625 11.1075 -2 12 C-2.99 12 -3.98 12 -5 12 C-3.68938409 7.76570244 -2.05643741 3.92592596 0 0 Z " fill="#7B52CF" transform="translate(213,238)"/>
<path d="M0 0 C1.53271273 4.58798777 0.02911182 6.77944742 -2 11 C-2.66 11 -3.32 11 -4 11 C-4.33 12.32 -4.66 13.64 -5 15 C-5.66 15 -6.32 15 -7 15 C-5.63408831 11.45756548 -4.09068516 8.07372071 -2.375 4.6875 C-1.70597656 3.36298828 -1.70597656 3.36298828 -1.0234375 2.01171875 C-0.68570312 1.34785156 -0.34796875 0.68398437 0 0 Z " fill="#433062" transform="translate(318,102)"/>
<path d="M0 0 C1.32 0 2.64 0 4 0 C2.35433477 5.68502535 -0.29032784 10.76681636 -3 16 C-4.13583456 12.28272326 -3.66670026 10.52948291 -2 7 C-1.34 7 -0.68 7 0 7 C0 4.69 0 2.38 0 0 Z " fill="#3A2C50" transform="translate(124,208)"/>
<path d="M0 0 C0.66 0 1.32 0 2 0 C0.65072455 4.53847198 -1.19159348 8.31932246 -3.625 12.375 C-4.25664062 13.43460938 -4.88828125 14.49421875 -5.5390625 15.5859375 C-6.02117187 16.38257813 -6.50328125 17.17921875 -7 18 C-8.2077558 14.37673261 -7.54311128 13.35853631 -6 10 C-5.34 10 -4.68 10 -4 10 C-4 8.02 -4 6.04 -4 4 C-2.68 4 -1.36 4 0 4 C0 2.68 0 1.36 0 0 Z " fill="#422F60" transform="translate(168,130)"/>
<path d="M0 0 C1.53920673 4.65922038 0.00891712 7.71898885 -2 12 C-3.5625 14.5 -3.5625 14.5 -5 16 C-5.66 16 -6.32 16 -7 16 C-5.35433477 10.31497465 -2.70967216 5.23318364 0 0 Z " fill="#7651C6" transform="translate(274,122)"/>
<path d="M0 0 C0.66 0 1.32 0 2 0 C0.35433477 5.68502535 -2.29032784 10.76681636 -5 16 C-6.09346477 13.22681526 -6.03742841 12.10756865 -5.0390625 9.23828125 C-4.57242188 8.27277344 -4.10578125 7.30726563 -3.625 6.3125 C-3.16351563 5.33925781 -2.70203125 4.36601562 -2.2265625 3.36328125 C-1 1 -1 1 0 0 Z " fill="#8155DD" transform="translate(126,272)"/>
<path d="M0 0 C0.33 0 0.66 0 1 0 C0.71769203 7.48116133 -2.18344183 12.65074114 -6 19 C-7.15941038 15.52176885 -6.70820884 13.54104422 -6 10 C-5.01 10 -4.02 10 -3 10 C-2.87625 9.46375 -2.7525 8.9275 -2.625 8.375 C-1.87793984 5.5361714 -0.94696636 2.77776798 0 0 Z " fill="#8357E0" transform="translate(171,185)"/>
<path d="M0 0 C1 2 1 2 0.44140625 4.1640625 C0.15136719 4.97617188 -0.13867188 5.78828125 -0.4375 6.625 C-0.72496094 7.44226563 -1.01242188 8.25953125 -1.30859375 9.1015625 C-1.65083984 10.04128906 -1.65083984 10.04128906 -2 11 C-2.66 11 -3.32 11 -4 11 C-4 12.65 -4 14.3 -4 16 C-5.32 16.33 -6.64 16.66 -8 17 C-7.1028125 15.2675 -7.1028125 15.2675 -6.1875 13.5 C-4.71399175 10.56865912 -3.4380976 7.64396273 -2.3125 4.5625 C-1 1 -1 1 0 0 Z " fill="#7753CA" transform="translate(160,148)"/>
<path d="M0 0 C2 3 2 3 1.96875 4.97265625 C1.48139085 7.14546579 1.0064711 9.00856359 0 11 C-3.125 12.5 -3.125 12.5 -6 13 C-5.71382812 12.43796875 -5.42765625 11.8759375 -5.1328125 11.296875 C-3.98584069 8.97129077 -2.92160206 6.62229799 -1.875 4.25 C-1.52179688 3.45078125 -1.16859375 2.6515625 -0.8046875 1.828125 C-0.53914063 1.22484375 -0.27359375 0.6215625 0 0 Z " fill="#7D52D6" transform="translate(260,149)"/>
<path d="M0 0 C0.33 0 0.66 0 1 0 C1.34574608 2.90426705 1.58374009 5.11804487 -0.078125 7.62890625 C-1.36481471 9.10416255 -2.68161833 10.55299573 -4 12 C-4.33 12.99 -4.66 13.98 -5 15 C-5.66 15 -6.32 15 -7 15 C-5.63408831 11.45756548 -4.09068516 8.07372071 -2.375 4.6875 C-1.70597656 3.36298828 -1.70597656 3.36298828 -1.0234375 2.01171875 C-0.68570313 1.34785156 -0.34796875 0.68398437 0 0 Z " fill="#45306A" transform="translate(197,142)"/>
<path d="M0 0 C0.33 0 0.66 0 1 0 C1.875 3.0625 1.875 3.0625 2 7 C0.32219519 9.67416275 -1.72101425 11.82670635 -4 14 C-5 12 -5 12 -4.2578125 9.6875 C-3.88398438 8.800625 -3.51015625 7.91375 -3.125 7 C-2.75632813 6.113125 -2.38765625 5.22625 -2.0078125 4.3125 C-1.37431018 2.85888227 -0.70913041 1.41826082 0 0 Z " fill="#3C2C50" transform="translate(214,110)"/>
<path d="M0 0 C0.33 0 0.66 0 1 0 C1.0270043 1.45823212 1.04639787 2.91660675 1.0625 4.375 C1.07410156 5.18710938 1.08570313 5.99921875 1.09765625 6.8359375 C1 9 1 9 0 11 C-2.5625 11.625 -2.5625 11.625 -5 12 C-3.68938409 7.76570244 -2.05643741 3.92592596 0 0 Z " fill="#3B2F54" transform="translate(252,228)"/>
<path d="M0 0 C0.33 0 0.66 0 1 0 C1.37068304 6.54873369 1.37068304 6.54873369 -0.4375 8.75 C-1.2109375 9.36875 -1.2109375 9.36875 -2 10 C-2.33 10.99 -2.66 11.98 -3 13 C-3.99 12.67 -4.98 12.34 -6 12 C-4.02 8.04 -2.04 4.08 0 0 Z " fill="#3A2D50" transform="translate(116,296)"/>
<path d="M0 0 C0.33 0 0.66 0 1 0 C0.88601335 1.62580966 0.75844341 3.25067157 0.625 4.875 C0.55539062 5.77992187 0.48578125 6.68484375 0.4140625 7.6171875 C0 10 0 10 -2 12 C-2.99 12 -3.98 12 -5 12 C-3.68938409 7.76570244 -2.05643741 3.92592596 0 0 Z " fill="#3C2F5F" transform="translate(324,90)"/>
<path d="M0 0 C2 4 2 4 1.4609375 6 C-0.64484361 9.87827313 -2.59675305 13.08293119 -6 16 C-5.125 11.25 -5.125 11.25 -4 9 C-3.34 9 -2.68 9 -2 9 C-1.34 6.03 -0.68 3.06 0 0 Z " fill="#412E60" transform="translate(203,252)"/>
<path d="M0 0 C0.66 0.33 1.32 0.66 2 1 C-0.64 5.95 -3.28 10.9 -6 16 C-7 12 -7 12 -6.0625 9.75 C-5.711875 9.1725 -5.36125 8.595 -5 8 C-4.34 8 -3.68 8 -3 8 C-2.67 6.02 -2.34 4.04 -2 2 C-1.34 2 -0.68 2 0 2 C0 1.34 0 0.68 0 0 Z " fill="#392B52" transform="translate(135,192)"/>
<path d="M0 0 C0.33 0 0.66 0 1 0 C0.67 2.97 0.34 5.94 0 9 C-0.99 9.33 -1.98 9.66 -3 10 C-3 10.66 -3 11.32 -3 12 C-3.66 12 -4.32 12 -5 12 C-3.68938409 7.76570244 -2.05643741 3.92592596 0 0 Z " fill="#7951CF" transform="translate(125,214)"/>
<path d="M0 0 C1.60031344 3.20062687 0.03173691 5.72271806 -1 9 C-1.66 9 -2.32 9 -3 9 C-3.33 10.32 -3.66 11.64 -4 13 C-4.66 13 -5.32 13 -6 13 C-4.75696561 7.82069003 -3.14512215 4.29833361 0 0 Z " fill="#47326E" transform="translate(225,280)"/>
<path d="M0 0 C0.66 0.33 1.32 0.66 2 1 C-0.31 5.29 -2.62 9.58 -5 14 C-5.33 14 -5.66 14 -6 14 C-6.61528766 8.92387682 -4.61658349 6.17017994 -2 2 C-1.34 2 -0.68 2 0 2 C0 1.34 0 0.68 0 0 Z " fill="#3B2B54" transform="translate(93,272)"/>
<path d="M0 0 C0.66 1.32 1.32 2.64 2 4 C-0.76264289 4.59732819 -3.16032769 5 -6 5 C-5.67 3.68 -5.34 2.36 -5 1 C-3.35 0.67 -1.7 0.34 0 0 Z " fill="#8350E7" transform="translate(93,283)"/>
<path d="M0 0 C0.66 0 1.32 0 2 0 C0.50829734 4.9723422 -1.60457417 9.41845739 -4 14 C-5.06528748 11.26980214 -5.07998186 10.20701188 -4.00390625 7.421875 C-3.52824219 6.54015625 -3.05257812 5.6584375 -2.5625 4.75 C-2.08941406 3.85796875 -1.61632812 2.9659375 -1.12890625 2.046875 C-0.75636719 1.37140625 -0.38382813 0.6959375 0 0 Z " fill="#3D2A5D" transform="translate(210,240)"/>
<path d="M0 0 C0.33 1.32 0.66 2.64 1 4 C0.01 5.485 0.01 5.485 -1 7 C-1.70164642 8.98799818 -2.37372872 10.98698517 -3 13 C-3.99 12.67 -4.98 12.34 -6 12 C-4.02 8.04 -2.04 4.08 0 0 Z " fill="#3F2D5F" transform="translate(158,216)"/>
<path d="M0 0 C0.66 0 1.32 0 2 0 C1.25 6.625 1.25 6.625 -1 10 C-1.99 10 -2.98 10 -4 10 C-2.8905928 6.51329166 -1.73662334 3.22515763 0 0 Z " fill="#3E2D5F" transform="translate(179,176)"/>
<path d="M0 0 C1.65 0 3.3 0 5 0 C2.53846154 4.8 2.53846154 4.8 -0.1875 5.8125 C-0.785625 5.874375 -1.38375 5.93625 -2 6 C-1.34 4.02 -0.68 2.04 0 0 Z " fill="#7F53DC" transform="translate(192,278)"/>
<path d="M0 0 C0.75 1.5625 0.75 1.5625 1 4 C-0.13084437 6.50286409 -1.52139516 8.67007722 -3 11 C-3.66 11 -4.32 11 -5 11 C-3.77472971 6.94718288 -2.30119506 3.55639236 0 0 Z " fill="#734FC0" transform="translate(227,212)"/>
<path d="M0 0 C-1.47692308 6.52307692 -1.47692308 6.52307692 -4.125 8.9375 C-4.74375 9.288125 -5.3625 9.63875 -6 10 C-5.71872579 8.51882199 -5.42466268 7.04006751 -5.125 5.5625 C-4.96257812 4.73878906 -4.80015625 3.91507813 -4.6328125 3.06640625 C-4.42398438 2.38449219 -4.21515625 1.70257813 -4 1 C-2 0 -2 0 0 0 Z " fill="#402F5E" transform="translate(154,160)"/>
<path d="M0 0 C0.99 0 1.98 0 3 0 C1.90931332 3.77545388 1.0916909 6.47043472 -2 9 C-3 6 -3 6 -1.5625 2.8125 C-1.046875 1.884375 -0.53125 0.95625 0 0 Z " fill="#3D2E58" transform="translate(172,120)"/>
<path d="M0 0 C0.99 0.33 1.98 0.66 3 1 C1.35 4.3 -0.3 7.6 -2 11 C-4 8 -4 8 -4 6 C-3.01 6 -2.02 6 -1 6 C-1.020625 5.195625 -1.04125 4.39125 -1.0625 3.5625 C-1 1 -1 1 0 0 Z " fill="#3A2D51" transform="translate(288,91)"/>
<path d="M0 0 C0.98120464 3.05263664 0.98120464 4.94736336 0 8 C-0.66 8 -1.32 8 -2 8 C-2.33 8.99 -2.66 9.98 -3 11 C-3.66 11 -4.32 11 -5 11 C-3.55049545 7.2089881 -1.84827434 3.6125362 0 0 Z " fill="#7B53D1" transform="translate(207,250)"/>
<path d="M0 0 C1.16585932 3.49757797 0.75860292 4.61568066 -0.3125 8.0625 C-0.57675781 8.94035156 -0.84101563 9.81820312 -1.11328125 10.72265625 C-2 13 -2 13 -4 15 C-3.43179252 9.54520815 -2.05362055 5.08940744 0 0 Z " fill="#42325C" transform="translate(218,223)"/>
<path d="M0 0 C0.66 0.66 1.32 1.32 2 2 C1 5 1 5 -2 7 C-2.99 6.67 -3.98 6.34 -5 6 C-4.34 4.68 -3.68 3.36 -3 2 C-2.01 2 -1.02 2 0 2 C0 1.34 0 0.68 0 0 Z " fill="#8153E3" transform="translate(269,136)"/>
<path d="M0 0 C1.46726798 3.81489674 0.43336419 6.29011622 -1 10 C-1.99 10 -2.98 10 -4 10 C-3.43454163 6.04179141 -2.19097652 3.3340947 0 0 Z " fill="#7852C9" transform="translate(221,224)"/>
<path d="M0 0 C0.66 0 1.32 0 2 0 C0.375 6.75 0.375 6.75 -3 9 C-3.33 8.01 -3.66 7.02 -4 6 C-3.34 6 -2.68 6 -2 6 C-1.855625 5.195625 -1.71125 4.39125 -1.5625 3.5625 C-1 1 -1 1 0 0 Z " fill="#7851CC" transform="translate(152,224)"/>
<path d="M0 0 C1 2 1 2 0.1875 4.9375 C-1 8 -1 8 -3 11 C-3.66 11 -4.32 11 -5 11 C-3.77472971 6.94718288 -2.30119506 3.55639236 0 0 Z " fill="#47326C" transform="translate(203,131)"/>
<path d="M0 0 C0.66 0.99 1.32 1.98 2 3 C1.375 5.625 1.375 5.625 0 8 C-2.125 8.8125 -2.125 8.8125 -4 9 C-2.80100302 5.9168649 -1.52299523 2.93720508 0 0 Z " fill="#49346D" transform="translate(214,300)"/>
<path d="M0 0 C0.75 1.5625 0.75 1.5625 1 4 C-0.13084437 6.50286409 -1.52139516 8.67007722 -3 11 C-3.66 11 -4.32 11 -5 11 C-3.55049545 7.2089881 -1.84827434 3.6125362 0 0 Z " fill="#7C56D2" transform="translate(283,106)"/>
<path d="M0 0 C0.33 0 0.66 0 1 0 C0 7.42857143 0 7.42857143 -1 11 C-2.32 11.33 -3.64 11.66 -5 12 C-3.41037341 7.96479403 -1.71767682 3.98188718 0 0 Z " fill="#443162" transform="translate(224,90)"/>
<path d="M0 0 C0.66 0.33 1.32 0.66 2 1 C0.35 4.3 -1.3 7.6 -3 11 C-3.33 11 -3.66 11 -4 11 C-4.56638908 6.18569279 -2.82561627 3.79692186 0 0 Z " fill="#8256E2" transform="translate(216,293)"/>
<path d="M0 0 C0.75 1.5625 0.75 1.5625 1 4 C-0.13084437 6.50286409 -1.52139516 8.67007722 -3 11 C-3.66 11 -4.32 11 -5 11 C-3.55049545 7.2089881 -1.84827434 3.6125362 0 0 Z " fill="#7A53C9" transform="translate(186,290)"/>
<path d="M0 0 C0.66 0 1.32 0 2 0 C0.125 5.75 0.125 5.75 -1 8 C-1.66 8 -2.32 8 -3 8 C-3 6.35 -3 4.7 -3 3 C-2.34 3 -1.68 3 -1 3 C-0.67 2.01 -0.34 1.02 0 0 Z " fill="#8356E6" transform="translate(147,232)"/>
<path d="M0 0 C0.99 0.33 1.98 0.66 3 1 C1.84414715 4.91211733 0.64465038 7.8745041 -2 11 C-1.40049704 7.31733897 -0.75241109 3.65456815 0 0 Z " fill="#8056DB" transform="translate(273,181)"/>
<path d="M0 0 C0.33 0 0.66 0 1 0 C1 1.98 1 3.96 1 6 C-0.98 6.99 -0.98 6.99 -3 8 C-3 4.41465407 -1.97637955 2.92504174 0 0 Z " fill="#473366" transform="translate(292,152)"/>
<path d="M0 0 C1.11126362 3.33379087 0.95133201 5.62709561 0 9 C-0.66 9.99 -1.32 10.98 -2 12 C-2.28571429 3.42857143 -2.28571429 3.42857143 0 0 Z " fill="#3B2D48" transform="translate(295,146)"/>
<path d="M0 0 C0.99 1.32 1.98 2.64 3 4 C2.54625 4.4125 2.0925 4.825 1.625 5.25 C-0.05950374 7.06408095 -0.99265971 8.75285627 -2 11 C-3 9 -3 9 -2.44140625 6.8359375 C-2.15136719 6.02382812 -1.86132812 5.21171875 -1.5625 4.375 C-1.27503906 3.55773437 -0.98757813 2.74046875 -0.69140625 1.8984375 C-0.46324219 1.27195312 -0.23507812 0.64546875 0 0 Z " fill="#8154E5" transform="translate(277,117)"/>
<path d="M0 0 C0.99 0 1.98 0 3 0 C1.84414715 3.91211733 0.64465038 6.8745041 -2 10 C-2 8.02 -2 6.04 -2 4 C-1.34 4 -0.68 4 0 4 C0 2.68 0 1.36 0 0 Z " fill="#3F2F5A" transform="translate(97,262)"/>
<path d="M0 0 C0.98120464 3.05263664 0.98120464 4.94736336 0 8 C-1.32 8.33 -2.64 8.66 -4 9 C-2.94124926 5.59687262 -1.99097846 2.98646769 0 0 Z " fill="#7752C1" transform="translate(165,139)"/>
<path d="M0 0 C0.99 0 1.98 0 3 0 C1.84414715 3.91211733 0.64465038 6.8745041 -2 10 C-1.46274105 6.62294375 -0.88935377 3.303314 0 0 Z " fill="#3B2B52" transform="translate(268,128)"/>
<path d="M0 0 C0.66 0 1.32 0 2 0 C0.84414715 3.91211733 -0.35534962 6.8745041 -3 10 C-2.67 7.36 -2.34 4.72 -2 2 C-1.34 2 -0.68 2 0 2 C0 1.34 0 0.68 0 0 Z " fill="#7753C8" transform="translate(115,294)"/>
<path d="M0 0 C-1.09068668 3.77545388 -1.9083091 6.47043472 -5 9 C-5.36666667 3.5 -5.36666667 3.5 -3.625 1.125 C-2 0 -2 0 0 0 Z " fill="#8455DE" transform="translate(257,218)"/>
<path d="M0 0 C0.66 0.33 1.32 0.66 2 1 C0.68 3.64 -0.64 6.28 -2 9 C-3.20547945 4.17808219 -3.20547945 4.17808219 -2 1 C-1.34 0.67 -0.68 0.34 0 0 Z " fill="#7F58D4" transform="translate(230,267)"/>
<path d="M0 0 C0.33 0 0.66 0 1 0 C1 1.98 1 3.96 1 6 C-0.98 6.99 -0.98 6.99 -3 8 C-1.125 1.125 -1.125 1.125 0 0 Z " fill="#443166" transform="translate(310,117)"/>
<path d="M0 0 C0.88492145 2.47778006 1.11637742 3.66056586 0.25 6.1875 C-1 8 -1 8 -4 9 C-2.80100302 5.9168649 -1.52299523 2.93720508 0 0 Z " fill="#452F69" transform="translate(230,270)"/>
<path d="M0 0 C0.66 0 1.32 0 2 0 C1.46930939 3.82097239 0.50298434 6.06171403 -2 9 C-1.125 2.25 -1.125 2.25 0 0 Z " fill="#372A4C" transform="translate(225,210)"/>
<path d="M0 0 C0.99 0 1.98 0 3 0 C1.75023244 3.65316671 1.32901247 4.78065836 -2 7 C-1.34 4.69 -0.68 2.38 0 0 Z " fill="#7C54CE" transform="translate(185,160)"/>
<path d="M0 0 C0.66 0 1.32 0 2 0 C2.36923077 4.55384615 2.36923077 4.55384615 0.5 6.8125 C0.005 7.204375 -0.49 7.59625 -1 8 C-1.125 2.25 -1.125 2.25 0 0 Z " fill="#3F2C5D" transform="translate(155,152)"/>
</svg>
